<svg width="1010.0000000000001" height="590" xmlns="http://www.w3.org/2000/svg">
 <!-- Created with Method Draw - http://github.com/duopixel/Method-Draw/ -->

 <g>
  <title>background</title>
  <rect fill="none" id="canvas_background" height="592" width="1012" y="-1" x="-1"/>
  <g display="none" id="canvasGrid">
   <rect fill="url(#gridpattern)" stroke-width="0" y="0" x="0" height="100%" width="100%" id="svg_1"/>
  </g>
 </g>
 <g>
  <title>Layer 1</title>
  <rect stroke="#000" id="svg_4" height="70" width="58" y="36" x="139" stroke-width="1.5" fill="#e5e5e5"/>
  <rect stroke="#000" id="svg_5" height="70" width="58" y="36" x="197" stroke-width="1.5" fill="#e5e5e5"/>
  <rect stroke="#000" id="svg_6" height="70" width="58" y="36" x="255" stroke-width="1.5" fill="#e5e5e5"/>
  <rect stroke="#000" id="svg_7" height="155.508397" width="70" y="167.153247" x="13" stroke-width="1.5" fill="#e5e5e5"/>
  <rect stroke="#000" id="svg_11" height="70" width="127" y="322.253733" x="70.746267" stroke-width="1.5" fill="#e5e5e5"/>
  <rect stroke="#000" id="svg_13" height="70" width="58" y="322" x="197" stroke-width="1.5" fill="#e5e5e5"/>
  <rect stroke="#000" id="svg_14" height="70" width="58" y="322" x="255" stroke-width="1.5" fill="#e5e5e5"/>
  <rect stroke="#000" id="svg_20" height="165" width="69" y="132.746269" x="243.253731" stroke-width="1.5" fill="#e5e5e5"/>
  <rect stroke="#000" id="svg_23" height="70" width="122.211357" y="323" x="369.515465" stroke-width="1.5" fill="#e5e5e5"/>
  <rect stroke="#000" id="svg_24" height="85.789472" width="55" y="20" x="368" stroke-width="1.5" fill="#e5e5e5"/>
  <rect stroke="#000" id="svg_25" height="71" width="65.031313" y="35" x="415" stroke-width="1.5" fill="#e5e5e5"/>
  <rect stroke="#000" id="svg_26" height="71" width="65" y="35" x="496" stroke-width="1.5" fill="#e5e5e5"/>
  <rect stroke="#000000" id="svg_27" height="71" width="65" y="35" x="561" stroke-width="1.5" fill="#e5e5e5"/>
  <rect stroke="#000" id="svg_28" height="83" width="71" y="132" x="555" stroke-width="1.5" fill="#e5e5e5"/>
  <rect stroke="#000" id="svg_29" height="83" width="71" y="215" x="555" stroke-width="1.5" fill="#e5e5e5"/>
  <rect stroke="#515151" id="svg_33" height="89.844522" width="27.343987" y="167" x="655" stroke-width="1.5" fill="#515151"/>
  <rect stroke="#515151" id="svg_34" height="89.844522" width="27.343987" y="167.487803" x="340.487803" stroke-width="1.5" fill="#515151"/>
  <rect id="svg_36" height="18" width="828.768106" y="110" x="96.781257" stroke-width="1.5" fill="#5fbf00" stroke="#5fbf00"/>
  <rect id="svg_37" height="18" width="828" y="301" x="96" stroke-width="1.5" fill="#5fbf00" stroke="#5fbf00"/>
  <rect stroke="#5fbf00" id="svg_38" height="209" width="18" y="110" x="96" stroke-width="1.5" fill="#5fbf00"/>
  <rect stroke="#5fbf00" id="svg_39" height="209" width="18" y="110" x="631" stroke-width="1.5" fill="#5fbf00"/>
  <rect stroke="#5fbf00" id="svg_40" height="207" width="18" y="110.218743" x="317.622345" stroke-width="1.5" fill="#5fbf00"/>
  <rect stroke="#000" id="svg_31" height="165" width="70.468807" y="132" x="683" stroke-width="1.5" fill="#e5e5e5"/>
  <rect stroke="#000" id="svg_22" height="90.687591" width="69" y="206.312409" x="369" stroke-width="1.5" fill="#e5e5e5"/>
  <rect stroke="#5fbf00" id="svg_51" height="18" width="44.174874" y="145" x="318.63919" stroke-width="1.5" fill="#5fbf00"/>
  <rect stroke="#5fbf00" id="svg_54" height="27.010819" width="18" y="145" x="345" stroke-width="1.5" fill="#5fbf00"/>
  <rect stroke="#5fbf00" id="svg_56" height="18" width="44.174874" y="145" x="633" stroke-width="1.5" fill="#5fbf00"/>
  <rect stroke="#5fbf00" id="svg_57" height="27.010819" width="18" y="145" x="660" stroke-width="1.5" fill="#5fbf00"/>
  <text transform="rotate(-4.7294721603393555 416.21875000000017,347.2578125000001) " xml:space="preserve" text-anchor="start" font-family="Helvetica, Arial, sans-serif" font-size="24" id="svg_61" y="355.630279" x="409.555008" stroke-opacity="null" stroke-width="0" stroke="#000" fill="#000000"/>
  <rect stroke="#5fbf00" id="svg_70" height="18" width="45.731289" y="261" x="631.655765" stroke-width="1.5" fill="#5fbf00"/>
  <rect stroke="#5fbf00" id="svg_2" height="207" width="18" y="301" x="908" stroke-width="1.5" fill="#5fbf00"/>
  <rect id="svg_3" height="70" width="110.538289" y="323" x="683" stroke-width="1.5" fill="#e5e5e5" stroke="#000"/>
  <rect stroke="#000" id="svg_15" height="60" width="70" y="426" x="801" stroke-width="1.5" fill="#e5e5e5"/>
  <rect stroke="#000" id="svg_21" height="57.761192" width="70" y="324.238808" x="930" stroke-width="1.5" fill="#e5e5e5"/>
  <rect stroke="#5fbf00" id="svg_32" height="27.010819" width="18" y="252" x="660" stroke-width="1.5" fill="#5fbf00"/>
  <rect id="svg_35" height="18" width="45" y="262" x="318" stroke-width="1.5" fill="#5fbf00" stroke="#5fbf00"/>
  <rect stroke="#5fbf00" id="svg_41" height="27.010819" width="18" y="252" x="346" stroke-width="1.5" fill="#5fbf00"/>
  <rect stroke="#5fbf00" id="svg_43" height="209" width="18" y="110" x="907.921967" stroke-width="1.5" fill="#5fbf00"/>
  <rect stroke="#000" id="svg_44" height="70" width="63" y="36" x="874" stroke-width="1.5" fill="#e5e5e5"/>
  <rect stroke="#000" id="svg_45" height="78" width="70" y="100.746269" x="930" stroke-width="1.5" fill="#e5e5e5"/>
  <rect stroke="#000" id="svg_46" height="74" width="70" y="178" x="930" stroke-width="1.5" fill="#e5e5e5"/>
  <rect stroke="#000" id="svg_47" height="74" width="70" y="251" x="930" stroke-width="1.5" fill="#e5e5e5"/>
  <rect stroke="#000" id="svg_50" height="86.910446" width="70" y="382.089554" x="930" stroke-width="1.5" fill="#e5e5e5"/>
  <rect stroke="#000" id="svg_52" height="70" width="63" y="36" x="811" stroke-width="1.5" fill="#e5e5e5"/>
  <rect stroke="#000" id="svg_53" height="70" width="63" y="36" x="748" stroke-width="1.5" fill="#e5e5e5"/>
  <rect id="svg_55" height="70" width="68" y="36" x="681" stroke-width="1.5" fill="#e5e5e5" stroke="#000"/>
  <rect id="svg_58" height="18" width="121.866875" y="489.613983" x="801.714216" stroke-width="1.5" fill="#5fbf00" stroke="#5fbf00"/>
  <rect stroke="#000" id="svg_60" height="70" width="63" y="511" x="801" stroke-width="1.5" fill="#e5e5e5"/>
  <rect stroke="#000" id="svg_62" height="70" width="63" y="511" x="864" stroke-width="1.5" fill="#e5e5e5"/>
  <path id="svg_10" d="m448.333608,341.994202c0,-1.654249 1.418878,-2.994192 3.170575,-2.994192c1.751699,0 3.170572,1.339943 3.170572,2.994192c0,1.654249 -1.418873,2.994192 -3.170572,2.994192c-1.751699,0 -3.170575,-1.339943 -3.170575,-2.994192zm10.660014,8.475474l0,-1.512153c0,-1.591007 -1.364982,-2.880975 -3.050689,-2.880975l-8.887323,0c-1.68473,0 -3.050688,1.289969 -3.050688,2.880975l0,1.512153c-0.002946,0.034323 -0.004913,0.069578 -0.004913,0.105293l0,8.709723c0,0.676758 0.580573,1.225028 1.297196,1.225028c0.715643,0 1.297684,-0.548272 1.297684,-1.225028l0,-8.58077l0.86987,0l0,9.806725l0.006385,0l0,13.856607c0,0.900795 0.774586,1.63275 1.729428,1.63275c0.955335,0 1.729428,-0.731027 1.729428,-1.63275l0,-13.856607l1.141001,0l0,13.856607c0,0.900795 0.775066,1.63275 1.729426,1.63275c0.955331,0 1.729425,-0.731027 1.729425,-1.63275l0,-13.856607l0.005403,0l0,-9.806725l0.869872,0l0,8.580304c0,0.676759 0.582039,1.225493 1.297685,1.225493c0.716633,0 1.297196,-0.548734 1.297196,-1.225493l0,-8.70972c-0.000487,-0.036179 -0.003439,-0.070506 -0.006386,-0.104831l0,0.000001z" fill-opacity="null" stroke-opacity="null" stroke-width="0" stroke="#000" fill="#000000"/>
  <path stroke="#000" id="svg_16" d="m408.475346,344.988111c1.66945,0 3.024416,-1.340017 3.024416,-2.99312c0,-1.654032 -1.354966,-2.994976 -3.024416,-2.994976c-1.67086,0 -3.026291,1.340944 -3.026291,2.994976c0,1.653103 1.354963,2.99312 3.026291,2.99312zm8.482239,12.908499l-2.714148,-9.962225c-0.025309,-0.090447 -0.060933,-0.17672 -0.104046,-0.2565c-0.308397,-0.933234 -1.193739,-1.609039 -2.239374,-1.609039l-6.869497,0c-1.090159,0 -2.005504,0.733786 -2.274993,1.729637c-0.018279,0.0436 -0.033276,0.08952 -0.046867,0.13683l-2.665876,9.961762c-0.177634,0.653076 0.214187,1.324244 0.875028,1.500038c0.659909,0.174865 1.338098,-0.2129 1.515732,-0.865976l2.093609,-7.825343l0.872221,0l-3.799622,14.158531l3.580283,0l0,9.774834c0,0.751876 0.61491,1.360888 1.375585,1.360888c0.758799,0 1.375117,-0.608551 1.375117,-1.360888l0,-9.774834l1.093909,0l0,9.774834c0,0.751876 0.615848,1.360888 1.376526,1.360888c0.758798,0 1.375117,-0.608551 1.375117,-1.360888l0,-9.774834l3.578401,0l-3.813681,-14.158531l0.895188,0l2.132038,7.825343c0.177631,0.653076 0.855821,1.040841 1.515724,0.865976c0.658502,-0.175793 1.050321,-0.847424 0.873628,-1.500502l-0.000001,0z" fill-opacity="null" stroke-opacity="null" stroke-width="0" fill="#000000"/>
  <path stroke="#ffffff" id="svg_17" d="m343.076522,215.270144c1.333938,-0.008757 2.667876,-0.017515 4.001814,-0.026271c0.008783,-1.385111 0.017564,-2.770222 0.026346,-4.155332c1.327565,0 2.655132,0 3.982698,0c0,-1.393609 0,-2.787218 0,-4.180827c1.361563,0 2.723124,0 4.084686,0c0,-1.359618 0,-2.719236 0,-4.078855c1.344752,0 2.689503,0 4.034257,0c0,-1.359617 0,-2.719236 0,-4.078855c2.000319,0 4.000639,0 6.000958,0c0,0.679809 0,1.359618 0,2.039427c-1.327945,0 -2.655886,0 -3.983831,0c0,1.376613 0,2.753227 0,4.129841c-1.344751,0 -2.689503,0 -4.034257,0c0,1.376614 0,2.753227 0,4.129841c-1.344753,0 -2.689503,0 -4.034257,0c0,1.376613 0,2.753227 0,4.129838c-1.361563,0 -2.723124,0 -4.084685,0c0,1.39361 0,2.787218 0,4.180826c-2.017129,0 -4.034257,0 -6.051386,0c0.089924,-0.675559 -0.1533,-1.437328 0.057657,-2.089633l0,-0.000001z" stroke-width="1.5" fill="#ffffff"/>
  <path stroke="#ffffff" id="svg_30" d="m657.838819,215.270137c1.33394,-0.00876 2.66788,-0.01752 4.00182,-0.02628c0.00878,-1.38511 0.01756,-2.77022 0.02634,-4.15533c1.32757,0 2.65513,0 3.9827,0c0,-1.39361 0,-2.78722 0,-4.18082c1.36156,0 2.72312,0 4.08469,0c0,-1.35962 0,-2.71924 0,-4.07886c1.34475,0 2.6895,0 4.03425,0c0,-1.35962 0,-2.71924 0,-4.07885c2.00032,0 4.00064,0 6.00096,0c0,0.6798 0,1.35961 0,2.03942c-1.32794,0 -2.65588,0 -3.98383,0c0,1.37662 0,2.75323 0,4.12984c-1.34475,0 -2.6895,0 -4.03426,0c0,1.37662 0,2.75323 0,4.12984c-1.34475,0 -2.6895,0 -4.03425,0c0,1.37662 0,2.75323 0,4.12984c-1.36157,0 -2.72313,0 -4.08469,0c0,1.39361 0,2.78722 0,4.18083c-2.01713,0 -4.03426,0 -6.05139,0c0.08993,-0.67556 -0.1533,-1.43733 0.05766,-2.08963l0,0z" stroke-width="1.5" fill="#ffffff"/>
  <text xml:space="preserve" text-anchor="start" font-family="Euphoria, sans-serif" font-size="10" id="svg_42" y="318.041714" x="34.020659" fill-opacity="null" stroke-opacity="null" stroke-width="0" stroke="#000" fill="#000000">Raum 106</text>
  <text xml:space="preserve" text-anchor="start" font-family="Euphoria, sans-serif" font-size="10" id="svg_48" y="334" x="148.453825" fill-opacity="null" stroke-opacity="null" stroke-width="0" stroke="#000" fill="#000000">Raum 117</text>
  <text xml:space="preserve" text-anchor="start" font-family="Euphoria, sans-serif" font-size="10" id="svg_49" y="334" x="206.701334" fill-opacity="null" stroke-opacity="null" stroke-width="0" stroke="#000" fill="#000000">Raum 126</text>
  <text xml:space="preserve" text-anchor="start" font-family="Euphoria, sans-serif" font-size="10" id="svg_59" y="334" x="264" fill-opacity="null" stroke-opacity="null" stroke-width="0" stroke="#000" fill="#000000">Raum 128</text>
  <text xml:space="preserve" text-anchor="start" font-family="Euphoria, sans-serif" font-size="10" id="svg_65" y="144" x="264.433386" fill-opacity="null" stroke-opacity="null" stroke-width="0" stroke="#000" fill="#000000">Raum 111</text>
  <text style="cursor: move;" xml:space="preserve" text-anchor="start" font-family="Euphoria, sans-serif" font-size="10" id="svg_67" y="293" x="390" fill-opacity="null" stroke-opacity="null" stroke-width="0" stroke="#000" fill="#000000">Raum 140</text>
  <text style="cursor: move;" xml:space="preserve" text-anchor="start" font-family="Euphoria, sans-serif" font-size="10" id="svg_68" y="294" x="578" fill-opacity="null" stroke-opacity="null" stroke-width="0" stroke="#000" fill="#000000">Raum 143</text>
  <text xml:space="preserve" text-anchor="start" font-family="Euphoria, sans-serif" font-size="10" id="svg_69" y="143" x="578" fill-opacity="null" stroke-opacity="null" stroke-width="0" stroke="#000" fill="#000000">Raum 142</text>
  <text style="cursor: move;" xml:space="preserve" text-anchor="start" font-family="Euphoria, sans-serif" font-size="10" id="svg_71" y="101.216202" x="577.484535" fill-opacity="null" stroke-opacity="null" stroke-width="0" stroke="#000" fill="#000000">Raum 138</text>
  <text style="cursor: move;" xml:space="preserve" text-anchor="start" font-family="Euphoria, sans-serif" font-size="10" id="svg_72" y="101.731667" x="512.53598" fill-opacity="null" stroke-opacity="null" stroke-width="0" stroke="#000" fill="#000000">Raum 137</text>
  <text style="cursor: move;" xml:space="preserve" text-anchor="start" font-family="Euphoria, sans-serif" font-size="10" id="svg_73" y="101.731667" x="431.608025" fill-opacity="null" stroke-opacity="null" stroke-width="0" stroke="#000" fill="#000000">Raum 136</text>
  <text xml:space="preserve" text-anchor="start" font-family="Euphoria, sans-serif" font-size="10" id="svg_74" y="31" x="370" fill-opacity="null" stroke-opacity="null" stroke-width="0" stroke="#000" fill="#000000">Raum 131</text>
  <text style="cursor: move;" xml:space="preserve" text-anchor="start" font-family="Euphoria, sans-serif" font-size="10" id="svg_75" y="101.731667" x="264.081997" fill-opacity="null" stroke-opacity="null" stroke-width="0" stroke="#000" fill="#000000">Raum 104</text>
  <text style="cursor: move;" xml:space="preserve" text-anchor="start" font-family="Euphoria, sans-serif" font-size="10" id="svg_76" y="101.731667" x="207" fill-opacity="null" stroke-opacity="null" stroke-width="0" stroke="#000" fill="#000000">Raum 103</text>
  <text style="cursor: move;" xml:space="preserve" text-anchor="start" font-family="Euphoria, sans-serif" font-size="10" id="svg_77" y="101.731667" x="149" fill-opacity="null" stroke-opacity="null" stroke-width="0" stroke="#000" fill="#000000">Raum 102</text>
  <text style="cursor: move;" xml:space="preserve" text-anchor="start" font-family="Euphoria, sans-serif" font-size="10" id="svg_79" y="101.216202" x="700" fill-opacity="null" stroke-opacity="null" stroke-width="0" stroke="#000" fill="#000000">Raum 150</text>
  <text style="cursor: move;" xml:space="preserve" text-anchor="start" font-family="Euphoria, sans-serif" font-size="10" id="svg_80" y="101.216202" x="763" fill-opacity="null" stroke-opacity="null" stroke-width="0" stroke="#000" fill="#000000">Raum 151</text>
  <text style="cursor: move;" xml:space="preserve" text-anchor="start" font-family="Euphoria, sans-serif" font-size="10" id="svg_81" y="101.216202" x="826" fill-opacity="null" stroke-opacity="null" stroke-width="0" stroke="#000" fill="#000000">Raum 152</text>
  <text style="cursor: move;" xml:space="preserve" text-anchor="start" font-family="Euphoria, sans-serif" font-size="10" id="svg_82" y="101.216202" x="881" fill-opacity="null" stroke-opacity="null" stroke-width="0" stroke="#000" fill="#000000">Raum 153</text>
  <text xml:space="preserve" text-anchor="start" font-family="Euphoria, sans-serif" font-size="10" id="svg_83" y="172" x="951.61866" fill-opacity="null" stroke-opacity="null" stroke-width="0" stroke="#000" fill="#000000">Raum 172</text>
  <text xml:space="preserve" text-anchor="start" font-family="Euphoria, sans-serif" font-size="10" id="svg_84" y="246" x="951.61866" fill-opacity="null" stroke-opacity="null" stroke-width="0" stroke="#000" fill="#000000">Raum 171</text>
  <text xml:space="preserve" text-anchor="start" font-family="Euphoria, sans-serif" font-size="10" id="svg_85" y="320" x="951" fill-opacity="null" stroke-opacity="null" stroke-width="0" stroke="#000" fill="#000000">Raum 170</text>
  <text xml:space="preserve" text-anchor="start" font-family="Euphoria, sans-serif" font-size="10" id="svg_86" y="376" x="951.61866" fill-opacity="null" stroke-opacity="null" stroke-width="0" stroke="#000" fill="#000000">Raum 169</text>
  <text style="cursor: move;" xml:space="preserve" text-anchor="start" font-family="Euphoria, sans-serif" font-size="10" id="svg_87" y="464" x="951.61866" fill-opacity="null" stroke-opacity="null" stroke-width="0" stroke="#000" fill="#000000">Raum 167</text>
  <text xml:space="preserve" text-anchor="start" font-family="Euphoria, sans-serif" font-size="10" id="svg_88" y="523" x="878.422676" fill-opacity="null" stroke-opacity="null" stroke-width="0" stroke="#000" fill="#000000">Raum 165</text>
  <text xml:space="preserve" text-anchor="start" font-family="Euphoria, sans-serif" font-size="10" id="svg_89" y="523" x="815" fill-opacity="null" stroke-opacity="null" stroke-width="0" stroke="#000" fill="#000000">Raum 164</text>
  <text style="cursor: move;" xml:space="preserve" text-anchor="start" font-family="Euphoria, sans-serif" font-size="10" id="svg_90" y="482" x="823" fill-opacity="null" stroke-opacity="null" stroke-width="0" stroke="#000" fill="#000000">Raum 162</text>
  <text xml:space="preserve" text-anchor="start" font-family="Euphoria, sans-serif" font-size="10" id="svg_91" y="334" x="745" fill-opacity="null" stroke-opacity="null" stroke-width="0" stroke="#000" fill="#000000">Raum 159</text>
  <text style="cursor: text;" xml:space="preserve" text-anchor="start" font-family="Euphoria, sans-serif" font-size="10" id="svg_92" y="143.253733" x="705" fill-opacity="null" stroke-opacity="null" stroke-width="0" stroke="#000" fill="#000000">Raum 154</text>
  <rect stroke="#000" id="svg_94" height="70" width="63" y="511" x="927" stroke-width="1.5" fill="#e5e5e5"/>
  <text xml:space="preserve" text-anchor="start" font-family="Euphoria, sans-serif" font-size="10" id="svg_95" y="523" x="941" fill-opacity="null" stroke-opacity="null" stroke-width="0" stroke="#000" fill="#000000">Raum 166</text>
  <rect stroke="#000" id="svg_96" height="70" width="70" y="98" x="13" stroke-width="1.5" fill="#e5e5e5"/>
  <rect stroke="#000" id="svg_8" height="70" width="69" y="36" x="70" stroke-width="1.5" fill="#e5e5e5"/>
  <text style="cursor: move;" xml:space="preserve" text-anchor="start" font-family="Euphoria, sans-serif" font-size="10" id="svg_98" y="101.139951" x="90.408284" fill-opacity="null" stroke-opacity="null" stroke-width="0" stroke="#000" fill="#000000">Raum 101</text>
  <text style="cursor: move;" xml:space="preserve" text-anchor="start" font-family="Euphoria, sans-serif" font-size="10" id="svg_99" y="163" x="34.020659" fill-opacity="null" stroke-opacity="null" stroke-width="0" stroke="#000" fill="#000000">Raum 105</text>
 </g>
</svg>